<?xml version="1.0" standalone="no"?>
<!DOCTYPE svg PUBLIC "-//W3C//DTD SVG 20010904//EN"
 "http://www.w3.org/TR/2001/REC-SVG-20010904/DTD/svg10.dtd">
<svg version="1.0" xmlns="http://www.w3.org/2000/svg"
 width="260.000000pt" height="260.000000pt" viewBox="0 0 260.000000 260.000000"
 preserveAspectRatio="xMidYMid meet">
<metadata>
Created by potrace 1.11, written by Peter Selinger 2001-2013
</metadata>
<g transform="translate(0.000000,260.000000) scale(0.100000,-0.100000)"
fill="#000000" stroke="none">
<path d="M508 2108 c-3 -7 -18 -12 -36 -10 -25 2 -32 -2 -33 -15 -4 -99 -7
-112 -43 -173 -22 -36 -48 -81 -59 -100 -22 -39 -193 -336 -207 -360 -94 -158
-109 -189 -92 -194 44 -13 250 -68 270 -72 13 -3 47 -12 75 -22 l52 -17 2
-375 c0 -206 2 -381 2 -387 1 -10 72 -13 319 -13 l318 0 24 -32 c109 -148 270
-257 458 -310 111 -32 314 -31 425 0 256 73 461 255 556 494 47 118 60 196 56
333 -4 132 -25 223 -75 329 -63 134 -178 266 -305 349 l-50 32 -2 255 c0 140
-2 260 -2 266 -1 7 -238 11 -811 11 -613 0 -813 3 -824 12 -11 9 -15 9 -18 -1z"/>
</g>
</svg>
